<svg width="171" height="171" viewBox="0 0 171 171" fill="none" xmlns="http://www.w3.org/2000/svg">
<rect y="2" width="167" height="167" rx="20" fill="white"/>
<path d="M19.9785 94V58.6484H27.3027V74.3223H27.791L40.6328 58.6484H49.4707L36.2871 74.4688L49.6172 94H40.8281L31.0137 79.4004L27.3027 83.8926V94H19.9785ZM75.0078 58.6484H82.3809V81.5977C82.3809 89.3613 76.5215 94.4883 67.7324 94.4883C58.9434 94.4883 53.1328 89.3613 53.1328 81.5977V58.6484H60.457V81.0117C60.457 85.0645 63.3379 88.043 67.7324 88.043C72.1758 88.043 75.0078 85.0645 75.0078 81.0117V58.6484ZM107.527 68.7559C107.234 65.9727 104.988 64.3125 101.424 64.3125C97.7129 64.3125 95.6621 66.0215 95.6133 68.3652C95.5645 70.9043 98.25 72.0762 101.277 72.7598L104.451 73.541C110.506 74.9082 115.047 77.9844 115.047 83.8926C115.047 90.3867 109.969 94.4883 101.375 94.4883C92.8301 94.4883 87.3613 90.5332 87.166 82.9648H94.2949C94.5391 86.5293 97.3711 88.3359 101.277 88.3359C105.135 88.3359 107.625 86.5293 107.625 83.8926C107.625 81.5 105.428 80.377 101.57 79.4004L97.7129 78.4727C91.7559 77.0078 88.0938 74.0293 88.0938 68.8535C88.0938 62.4082 93.7578 58.1602 101.473 58.1602C109.285 58.1602 114.461 62.5059 114.559 68.7559H107.527ZM132.283 94H119.832V58.6484H132.43C143.074 58.6484 149.568 65.2891 149.568 76.2754C149.568 87.3594 143.074 94 132.283 94ZM127.156 87.7012H131.99C138.729 87.7012 142.244 84.1855 142.244 76.2754C142.244 68.4141 138.729 64.9473 132.039 64.9473H127.156V87.7012ZM20.7705 110V100.809H22.6748V104.884H22.8018L26.1406 100.809H28.4385L25.0107 104.922L28.4766 110H26.1914L23.6396 106.204L22.6748 107.372V110H20.7705ZM35.0781 100.809H36.9951V106.775C36.9951 108.794 35.4717 110.127 33.1865 110.127C30.9014 110.127 29.3906 108.794 29.3906 106.775V100.809H31.2949V106.623C31.2949 107.677 32.0439 108.451 33.1865 108.451C34.3418 108.451 35.0781 107.677 35.0781 106.623V100.809ZM46.5293 103.437C46.4531 102.713 45.8691 102.281 44.9424 102.281C43.9775 102.281 43.4443 102.726 43.4316 103.335C43.4189 103.995 44.1172 104.3 44.9043 104.478L45.7295 104.681C47.3037 105.036 48.4844 105.836 48.4844 107.372C48.4844 109.061 47.1641 110.127 44.9297 110.127C42.708 110.127 41.2861 109.099 41.2354 107.131H43.0889C43.1523 108.058 43.8887 108.527 44.9043 108.527C45.9072 108.527 46.5547 108.058 46.5547 107.372C46.5547 106.75 45.9834 106.458 44.9805 106.204L43.9775 105.963C42.4287 105.582 41.4766 104.808 41.4766 103.462C41.4766 101.786 42.9492 100.682 44.9551 100.682C46.9863 100.682 48.332 101.812 48.3574 103.437H46.5293ZM53.3213 103.106V104.516H52.0264V107.88C52.0264 108.426 52.293 108.565 52.6738 108.578C52.8643 108.578 53.1943 108.565 53.4229 108.54V110.025C53.2197 110.063 52.8896 110.089 52.4199 110.089C51.0615 110.089 50.1348 109.479 50.1475 108.146V104.516H49.1953V103.106H50.1475V101.456H52.0264V103.106H53.3213ZM58.9199 107.067V103.106H60.7988V110H58.9961V108.756H58.9199C58.6025 109.556 57.8662 110.089 56.8252 110.089C55.4414 110.089 54.502 109.111 54.502 107.499V103.106H56.3809V107.169C56.3809 107.981 56.8506 108.502 57.5869 108.502C58.2725 108.502 58.9199 108.007 58.9199 107.067ZM64.7979 110.114C63.2236 110.114 61.9922 108.857 61.9922 106.56C61.9922 104.198 63.2744 103.018 64.7979 103.018C65.9531 103.018 66.499 103.703 66.7529 104.262H66.8164V100.809H68.6953V110H66.8418V108.896H66.7529C66.4863 109.467 65.915 110.114 64.7979 110.114ZM65.3818 108.616C66.3213 108.616 66.8545 107.791 66.8545 106.547C66.8545 105.303 66.3213 104.516 65.3818 104.516C64.4297 104.516 63.9219 105.341 63.9219 106.547C63.9219 107.766 64.4297 108.616 65.3818 108.616ZM73.3291 110.14C71.2217 110.14 69.9268 108.769 69.9268 106.585C69.9268 104.452 71.2344 103.018 73.2529 103.018C75.0684 103.018 76.4902 104.16 76.4902 106.509V107.042H71.7803C71.7803 108.083 72.4023 108.73 73.3672 108.73C74.002 108.73 74.459 108.451 74.6494 108.032H76.4395C76.1729 109.302 75.0303 110.14 73.3291 110.14ZM71.7803 105.861H74.7129C74.7129 105.023 74.1289 104.427 73.291 104.427C72.4277 104.427 71.812 105.068 71.7803 105.861ZM79.5498 106.014V110H77.6709V103.106H79.4609V104.312H79.5371C79.8545 103.513 80.5908 103.018 81.6064 103.018C83.041 103.018 83.9932 103.995 83.9805 105.607V110H82.1143V105.938C82.1143 105.087 81.6445 104.579 80.8701 104.579C80.083 104.579 79.5498 105.1 79.5498 106.014ZM89.0713 103.106V104.516H87.7764V107.88C87.7764 108.426 88.043 108.565 88.4238 108.578C88.6143 108.578 88.9443 108.565 89.1729 108.54V110.025C88.9697 110.063 88.6396 110.089 88.1699 110.089C86.8115 110.089 85.8848 109.479 85.8975 108.146V104.516H84.9453V103.106H85.8975V101.456H87.7764V103.106H89.0713ZM96.5234 110H93.2861V100.809H96.5615C99.3291 100.809 101.018 102.535 101.018 105.392C101.018 108.273 99.3291 110 96.5234 110ZM95.1904 108.362H96.4473C98.1992 108.362 99.1133 107.448 99.1133 105.392C99.1133 103.348 98.1992 102.446 96.46 102.446H95.1904V108.362ZM105.486 110.14C103.379 110.14 102.084 108.769 102.084 106.585C102.084 104.452 103.392 103.018 105.41 103.018C107.226 103.018 108.647 104.16 108.647 106.509V107.042H103.938C103.938 108.083 104.56 108.73 105.524 108.73C106.159 108.73 106.616 108.451 106.807 108.032H108.597C108.33 109.302 107.188 110.14 105.486 110.14ZM103.938 105.861H106.87C106.87 105.023 106.286 104.427 105.448 104.427C104.585 104.427 103.969 105.068 103.938 105.861ZM116.036 103.106L113.611 110H111.504L109.092 103.106H111.072L112.52 108.058H112.596L114.043 103.106H116.036ZM119.845 110.14C117.737 110.14 116.442 108.769 116.442 106.585C116.442 104.452 117.75 103.018 119.769 103.018C121.584 103.018 123.006 104.16 123.006 106.509V107.042H118.296C118.296 108.083 118.918 108.73 119.883 108.73C120.518 108.73 120.975 108.451 121.165 108.032H122.955C122.688 109.302 121.546 110.14 119.845 110.14ZM118.296 105.861H121.229C121.229 105.023 120.645 104.427 119.807 104.427C118.943 104.427 118.328 105.068 118.296 105.861ZM126.065 100.809V110H124.187V100.809H126.065ZM130.623 110.14C128.541 110.14 127.246 108.705 127.246 106.572C127.246 104.439 128.541 103.018 130.623 103.018C132.705 103.018 134.013 104.439 134.013 106.572C134.013 108.705 132.705 110.14 130.623 110.14ZM130.636 108.68C131.601 108.68 132.096 107.778 132.096 106.572C132.096 105.354 131.601 104.452 130.636 104.452C129.658 104.452 129.15 105.354 129.15 106.572C129.15 107.778 129.658 108.68 130.636 108.68ZM135.193 112.59V103.106H137.047V104.262H137.123C137.377 103.703 137.936 103.018 139.091 103.018C140.614 103.018 141.884 104.198 141.884 106.56C141.884 108.857 140.665 110.114 139.091 110.114C137.961 110.114 137.39 109.467 137.123 108.896H137.072V112.59H135.193ZM137.034 106.547C137.034 107.791 137.567 108.616 138.494 108.616C139.459 108.616 139.967 107.766 139.967 106.547C139.967 105.341 139.459 104.516 138.494 104.516C137.555 104.516 137.034 105.303 137.034 106.547ZM146.226 110.14C144.118 110.14 142.823 108.769 142.823 106.585C142.823 104.452 144.131 103.018 146.149 103.018C147.965 103.018 149.387 104.16 149.387 106.509V107.042H144.677C144.677 108.083 145.299 108.73 146.264 108.73C146.898 108.73 147.355 108.451 147.546 108.032H149.336C149.069 109.302 147.927 110.14 146.226 110.14ZM144.677 105.861H147.609C147.609 105.023 147.025 104.427 146.188 104.427C145.324 104.427 144.708 105.068 144.677 105.861ZM150.567 110V103.106H152.383V104.3H152.459C152.713 103.449 153.348 103.005 154.122 103.005C154.312 103.005 154.554 103.03 154.719 103.068V104.744C154.541 104.693 154.186 104.643 153.919 104.643C153.068 104.643 152.446 105.239 152.446 106.077V110H150.567Z" fill="#036B3F"/>
</svg>
